<?xml version="1.0" encoding="UTF-8"?>
<!DOCTYPE svg PUBLIC "-//W3C//DTD SVG 1.1//EN" "http://www.w3.org/Graphics/SVG/1.1/DTD/svg11.dtd">
<svg xmlns="http://www.w3.org/2000/svg" version="1.1" width="200px" height="200px" style="shape-rendering:geometricPrecision; text-rendering:geometricPrecision; image-rendering:optimizeQuality; fill-rule:evenodd; clip-rule:evenodd" xmlns:xlink="http://www.w3.org/1999/xlink">
<g><path style="opacity:1" fill="#000000" d="M -0.5,-0.5 C 66.1667,-0.5 132.833,-0.5 199.5,-0.5C 199.5,66.1667 199.5,132.833 199.5,199.5C 132.833,199.5 66.1667,199.5 -0.5,199.5C -0.5,132.833 -0.5,66.1667 -0.5,-0.5 Z"/></g>
<g><path style="opacity:1" fill="#fbfbfb" d="M 97.5,44.5 C 100.425,44.4598 103.091,45.2932 105.5,47C 121.039,56.0335 136.705,64.8669 152.5,73.5C 155.1,76.041 155.1,78.541 152.5,81C 147.167,84 141.833,87 136.5,90C 141.333,92.8333 146.167,95.6667 151,98.5C 151.808,100.579 151.641,102.579 150.5,104.5C 133.896,114.634 116.896,123.967 99.5,132.5C 82.1038,123.967 65.1038,114.634 48.5,104.5C 47.359,102.579 47.1923,100.579 48,98.5C 52.8333,95.6667 57.6667,92.8333 62.5,90C 57.1667,87 51.8333,84 46.5,81C 44.3517,78.9251 44.0183,76.5918 45.5,74C 63.0582,64.3925 80.3916,54.5591 97.5,44.5 Z"/></g>
<g><path style="opacity:1" fill="#060606" d="M 68.5,94.5 C 78.9308,99.5494 89.2641,104.883 99.5,110.5C 109.392,105.303 119.225,99.9701 129,94.5C 133.103,96.4645 136.936,98.7979 140.5,101.5C 127.281,109.943 113.615,117.61 99.5,124.5C 85.8826,117.691 72.5493,110.358 59.5,102.5C 58.2888,101.726 58.2888,100.893 59.5,100C 62.8981,98.6429 65.8981,96.8096 68.5,94.5 Z"/></g>
<g><path style="opacity:1" fill="#f3f3f3" d="M 52.5,121.5 C 68.2732,129.889 83.9399,138.555 99.5,147.5C 114.5,139 129.5,130.5 144.5,122C 147.23,121.058 148.563,122.058 148.5,125C 148.244,127.477 146.911,129.144 144.5,130C 129.463,138.184 114.463,146.35 99.5,154.5C 83.3763,145.937 67.3763,137.104 51.5,128C 50.0909,125.536 50.4243,123.369 52.5,121.5 Z"/></g>
</svg>
